<mxfile host="app.diagrams.net" modified="2022-11-05T04:27:34.854Z" agent="5.0 (Windows NT 10.0; Win64; x64) AppleWebKit/537.36 (KHTML, like Gecko) Chrome/103.0.0.0 Safari/537.36" etag="9DgzdZ3IjIZQZddRITjD" version="20.5.1" type="github">
  <diagram id="C5RBs43oDa-KdzZeNtuy" name="Page-1">
    <mxGraphModel dx="1209" dy="741" grid="1" gridSize="10" guides="1" tooltips="1" connect="1" arrows="1" fold="1" page="1" pageScale="1" pageWidth="827" pageHeight="1169" math="0" shadow="0">
      <root>
        <mxCell id="WIyWlLk6GJQsqaUBKTNV-0" />
        <mxCell id="WIyWlLk6GJQsqaUBKTNV-1" parent="WIyWlLk6GJQsqaUBKTNV-0" />
        <mxCell id="x4YNFccBxqyePPCdxMUl-10" style="edgeStyle=orthogonalEdgeStyle;rounded=0;orthogonalLoop=1;jettySize=auto;html=1;" edge="1" parent="WIyWlLk6GJQsqaUBKTNV-1" source="x4YNFccBxqyePPCdxMUl-0" target="x4YNFccBxqyePPCdxMUl-1">
          <mxGeometry relative="1" as="geometry" />
        </mxCell>
        <mxCell id="x4YNFccBxqyePPCdxMUl-0" value="玩家进入&lt;br&gt;英雄选择界面" style="rounded=1;whiteSpace=wrap;html=1;" vertex="1" parent="WIyWlLk6GJQsqaUBKTNV-1">
          <mxGeometry x="260" y="110" width="100" height="50" as="geometry" />
        </mxCell>
        <mxCell id="x4YNFccBxqyePPCdxMUl-13" style="edgeStyle=orthogonalEdgeStyle;rounded=0;orthogonalLoop=1;jettySize=auto;html=1;entryX=0.5;entryY=0;entryDx=0;entryDy=0;" edge="1" parent="WIyWlLk6GJQsqaUBKTNV-1" source="x4YNFccBxqyePPCdxMUl-1" target="x4YNFccBxqyePPCdxMUl-2">
          <mxGeometry relative="1" as="geometry" />
        </mxCell>
        <mxCell id="x4YNFccBxqyePPCdxMUl-1" value="显示15个英雄&lt;br&gt;选择按钮" style="shape=parallelogram;perimeter=parallelogramPerimeter;whiteSpace=wrap;html=1;fixedSize=1;" vertex="1" parent="WIyWlLk6GJQsqaUBKTNV-1">
          <mxGeometry x="250" y="190" width="120" height="60" as="geometry" />
        </mxCell>
        <mxCell id="x4YNFccBxqyePPCdxMUl-14" style="edgeStyle=orthogonalEdgeStyle;rounded=0;orthogonalLoop=1;jettySize=auto;html=1;entryX=0.5;entryY=0;entryDx=0;entryDy=0;" edge="1" parent="WIyWlLk6GJQsqaUBKTNV-1" source="x4YNFccBxqyePPCdxMUl-2" target="x4YNFccBxqyePPCdxMUl-3">
          <mxGeometry relative="1" as="geometry" />
        </mxCell>
        <mxCell id="x4YNFccBxqyePPCdxMUl-2" value="玩家按下某个&lt;br&gt;英雄的选择按钮" style="shape=parallelogram;perimeter=parallelogramPerimeter;whiteSpace=wrap;html=1;fixedSize=1;fillColor=#dae8fc;strokeColor=#6c8ebf;" vertex="1" parent="WIyWlLk6GJQsqaUBKTNV-1">
          <mxGeometry x="250" y="290" width="120" height="60" as="geometry" />
        </mxCell>
        <mxCell id="x4YNFccBxqyePPCdxMUl-17" style="edgeStyle=elbowEdgeStyle;rounded=0;orthogonalLoop=1;jettySize=auto;html=1;entryX=0.5;entryY=0;entryDx=0;entryDy=0;" edge="1" parent="WIyWlLk6GJQsqaUBKTNV-1" source="x4YNFccBxqyePPCdxMUl-3" target="x4YNFccBxqyePPCdxMUl-4">
          <mxGeometry relative="1" as="geometry" />
        </mxCell>
        <mxCell id="x4YNFccBxqyePPCdxMUl-25" style="edgeStyle=orthogonalEdgeStyle;rounded=0;orthogonalLoop=1;jettySize=auto;html=1;" edge="1" parent="WIyWlLk6GJQsqaUBKTNV-1" source="x4YNFccBxqyePPCdxMUl-3" target="x4YNFccBxqyePPCdxMUl-20">
          <mxGeometry relative="1" as="geometry">
            <mxPoint x="490" y="380" as="targetPoint" />
          </mxGeometry>
        </mxCell>
        <mxCell id="x4YNFccBxqyePPCdxMUl-3" value="判断英雄&lt;br&gt;是否已被选中" style="rhombus;whiteSpace=wrap;html=1;fontFamily=Helvetica;fontSize=12;align=center;strokeColor=#6c8ebf;fillColor=#dae8fc;" vertex="1" parent="WIyWlLk6GJQsqaUBKTNV-1">
          <mxGeometry x="250" y="380" width="120" height="60" as="geometry" />
        </mxCell>
        <mxCell id="x4YNFccBxqyePPCdxMUl-35" style="edgeStyle=elbowEdgeStyle;rounded=0;orthogonalLoop=1;jettySize=auto;html=1;exitX=0;exitY=0.5;exitDx=0;exitDy=0;entryX=0.5;entryY=1;entryDx=0;entryDy=0;" edge="1" parent="WIyWlLk6GJQsqaUBKTNV-1" source="x4YNFccBxqyePPCdxMUl-4" target="x4YNFccBxqyePPCdxMUl-21">
          <mxGeometry relative="1" as="geometry">
            <Array as="points">
              <mxPoint x="160" y="500" />
            </Array>
          </mxGeometry>
        </mxCell>
        <mxCell id="x4YNFccBxqyePPCdxMUl-40" style="edgeStyle=elbowEdgeStyle;rounded=0;orthogonalLoop=1;jettySize=auto;html=1;entryX=0.5;entryY=0;entryDx=0;entryDy=0;" edge="1" parent="WIyWlLk6GJQsqaUBKTNV-1" source="x4YNFccBxqyePPCdxMUl-4" target="x4YNFccBxqyePPCdxMUl-19">
          <mxGeometry relative="1" as="geometry" />
        </mxCell>
        <mxCell id="x4YNFccBxqyePPCdxMUl-4" value="判断已选英雄数&lt;br&gt;是否已达上限" style="rhombus;whiteSpace=wrap;html=1;fontFamily=Helvetica;fontSize=12;align=center;strokeColor=#6c8ebf;fillColor=#dae8fc;" vertex="1" parent="WIyWlLk6GJQsqaUBKTNV-1">
          <mxGeometry x="240" y="480" width="140" height="70" as="geometry" />
        </mxCell>
        <mxCell id="x4YNFccBxqyePPCdxMUl-42" style="edgeStyle=elbowEdgeStyle;rounded=0;orthogonalLoop=1;jettySize=auto;html=1;entryX=0.5;entryY=0;entryDx=0;entryDy=0;" edge="1" parent="WIyWlLk6GJQsqaUBKTNV-1" source="x4YNFccBxqyePPCdxMUl-5" target="x4YNFccBxqyePPCdxMUl-9">
          <mxGeometry relative="1" as="geometry" />
        </mxCell>
        <mxCell id="x4YNFccBxqyePPCdxMUl-5" value="玩家按下&lt;br&gt;开启对局按钮" style="shape=parallelogram;perimeter=parallelogramPerimeter;whiteSpace=wrap;html=1;fixedSize=1;fillColor=#dae8fc;strokeColor=#6c8ebf;" vertex="1" parent="WIyWlLk6GJQsqaUBKTNV-1">
          <mxGeometry x="250" y="660" width="120" height="60" as="geometry" />
        </mxCell>
        <mxCell id="x4YNFccBxqyePPCdxMUl-44" style="edgeStyle=elbowEdgeStyle;rounded=0;orthogonalLoop=1;jettySize=auto;html=1;entryX=0.5;entryY=0;entryDx=0;entryDy=0;" edge="1" parent="WIyWlLk6GJQsqaUBKTNV-1" source="x4YNFccBxqyePPCdxMUl-6" target="x4YNFccBxqyePPCdxMUl-7">
          <mxGeometry relative="1" as="geometry" />
        </mxCell>
        <mxCell id="x4YNFccBxqyePPCdxMUl-6" value="跳转至游戏&lt;br&gt;对局界面" style="rounded=0;whiteSpace=wrap;html=1;fillColor=#dae8fc;strokeColor=#6c8ebf;" vertex="1" parent="WIyWlLk6GJQsqaUBKTNV-1">
          <mxGeometry x="250" y="860" width="120" height="60" as="geometry" />
        </mxCell>
        <mxCell id="x4YNFccBxqyePPCdxMUl-7" value="结束" style="rounded=1;whiteSpace=wrap;html=1;fillColor=#dae8fc;strokeColor=#6c8ebf;" vertex="1" parent="WIyWlLk6GJQsqaUBKTNV-1">
          <mxGeometry x="265" y="950" width="90" height="40" as="geometry" />
        </mxCell>
        <mxCell id="x4YNFccBxqyePPCdxMUl-48" style="edgeStyle=elbowEdgeStyle;rounded=0;orthogonalLoop=1;jettySize=auto;html=1;entryX=1;entryY=0.5;entryDx=0;entryDy=0;" edge="1" parent="WIyWlLk6GJQsqaUBKTNV-1" source="x4YNFccBxqyePPCdxMUl-8" target="x4YNFccBxqyePPCdxMUl-6">
          <mxGeometry relative="1" as="geometry">
            <Array as="points">
              <mxPoint x="474" y="870" />
            </Array>
          </mxGeometry>
        </mxCell>
        <mxCell id="x4YNFccBxqyePPCdxMUl-8" value="随机选英雄&lt;br&gt;补全阵容" style="rounded=0;whiteSpace=wrap;html=1;fillColor=#dae8fc;strokeColor=#6c8ebf;" vertex="1" parent="WIyWlLk6GJQsqaUBKTNV-1">
          <mxGeometry x="414" y="755" width="120" height="60" as="geometry" />
        </mxCell>
        <mxCell id="x4YNFccBxqyePPCdxMUl-43" style="edgeStyle=elbowEdgeStyle;rounded=0;orthogonalLoop=1;jettySize=auto;html=1;entryX=0.5;entryY=0;entryDx=0;entryDy=0;" edge="1" parent="WIyWlLk6GJQsqaUBKTNV-1" source="x4YNFccBxqyePPCdxMUl-9" target="x4YNFccBxqyePPCdxMUl-6">
          <mxGeometry relative="1" as="geometry" />
        </mxCell>
        <mxCell id="x4YNFccBxqyePPCdxMUl-47" style="edgeStyle=elbowEdgeStyle;rounded=0;orthogonalLoop=1;jettySize=auto;html=1;exitX=1;exitY=0.5;exitDx=0;exitDy=0;entryX=0;entryY=0.5;entryDx=0;entryDy=0;" edge="1" parent="WIyWlLk6GJQsqaUBKTNV-1" source="x4YNFccBxqyePPCdxMUl-9" target="x4YNFccBxqyePPCdxMUl-8">
          <mxGeometry relative="1" as="geometry" />
        </mxCell>
        <mxCell id="x4YNFccBxqyePPCdxMUl-9" value="判断是否&lt;br&gt;选完三个英雄" style="rhombus;whiteSpace=wrap;html=1;fillColor=#dae8fc;strokeColor=#6c8ebf;" vertex="1" parent="WIyWlLk6GJQsqaUBKTNV-1">
          <mxGeometry x="250" y="750" width="120" height="70" as="geometry" />
        </mxCell>
        <mxCell id="x4YNFccBxqyePPCdxMUl-41" style="edgeStyle=elbowEdgeStyle;rounded=0;orthogonalLoop=1;jettySize=auto;html=1;entryX=0.5;entryY=0;entryDx=0;entryDy=0;" edge="1" parent="WIyWlLk6GJQsqaUBKTNV-1" source="x4YNFccBxqyePPCdxMUl-19" target="x4YNFccBxqyePPCdxMUl-5">
          <mxGeometry relative="1" as="geometry" />
        </mxCell>
        <mxCell id="x4YNFccBxqyePPCdxMUl-19" value="选中英雄" style="rounded=0;whiteSpace=wrap;html=1;fillColor=#dae8fc;strokeColor=#6c8ebf;" vertex="1" parent="WIyWlLk6GJQsqaUBKTNV-1">
          <mxGeometry x="260" y="585" width="100" height="45" as="geometry" />
        </mxCell>
        <mxCell id="x4YNFccBxqyePPCdxMUl-34" style="edgeStyle=elbowEdgeStyle;rounded=0;orthogonalLoop=1;jettySize=auto;html=1;exitX=0.5;exitY=0;exitDx=0;exitDy=0;" edge="1" parent="WIyWlLk6GJQsqaUBKTNV-1" source="x4YNFccBxqyePPCdxMUl-20">
          <mxGeometry relative="1" as="geometry">
            <mxPoint x="310" y="270" as="targetPoint" />
            <Array as="points">
              <mxPoint x="450" y="270" />
            </Array>
          </mxGeometry>
        </mxCell>
        <mxCell id="x4YNFccBxqyePPCdxMUl-20" value="取消英雄选中" style="rounded=0;whiteSpace=wrap;html=1;fillColor=#dae8fc;strokeColor=#6c8ebf;" vertex="1" parent="WIyWlLk6GJQsqaUBKTNV-1">
          <mxGeometry x="400" y="320" width="100" height="40" as="geometry" />
        </mxCell>
        <mxCell id="x4YNFccBxqyePPCdxMUl-39" style="edgeStyle=elbowEdgeStyle;rounded=0;orthogonalLoop=1;jettySize=auto;html=1;exitX=0.5;exitY=0;exitDx=0;exitDy=0;" edge="1" parent="WIyWlLk6GJQsqaUBKTNV-1" source="x4YNFccBxqyePPCdxMUl-21">
          <mxGeometry relative="1" as="geometry">
            <mxPoint x="310" y="270" as="targetPoint" />
            <Array as="points">
              <mxPoint x="160" y="200" />
              <mxPoint x="160" y="330" />
            </Array>
          </mxGeometry>
        </mxCell>
        <mxCell id="x4YNFccBxqyePPCdxMUl-21" value="不进行任何操作" style="rounded=0;whiteSpace=wrap;html=1;fillColor=#dae8fc;strokeColor=#6c8ebf;" vertex="1" parent="WIyWlLk6GJQsqaUBKTNV-1">
          <mxGeometry x="110" y="410" width="100" height="40" as="geometry" />
        </mxCell>
        <mxCell id="x4YNFccBxqyePPCdxMUl-54" value="是" style="edgeLabel;resizable=0;html=1;align=center;verticalAlign=middle;" connectable="0" vertex="1" parent="WIyWlLk6GJQsqaUBKTNV-1">
          <mxGeometry x="390" y="190" as="geometry">
            <mxPoint x="-172" y="323" as="offset" />
          </mxGeometry>
        </mxCell>
        <mxCell id="x4YNFccBxqyePPCdxMUl-55" value="是" style="edgeLabel;resizable=0;html=1;align=center;verticalAlign=middle;" connectable="0" vertex="1" parent="WIyWlLk6GJQsqaUBKTNV-1">
          <mxGeometry x="310" y="840" as="geometry" />
        </mxCell>
        <mxCell id="x4YNFccBxqyePPCdxMUl-60" value="否" style="edgeLabel;resizable=0;html=1;align=center;verticalAlign=middle;" connectable="0" vertex="1" parent="WIyWlLk6GJQsqaUBKTNV-1">
          <mxGeometry x="310" y="560" as="geometry" />
        </mxCell>
        <mxCell id="x4YNFccBxqyePPCdxMUl-61" value="否" style="edgeLabel;resizable=0;html=1;align=center;verticalAlign=middle;" connectable="0" vertex="1" parent="WIyWlLk6GJQsqaUBKTNV-1">
          <mxGeometry x="390" y="785" as="geometry" />
        </mxCell>
        <mxCell id="x4YNFccBxqyePPCdxMUl-62" value="玩家进入&lt;br&gt;英雄选择界面" style="rounded=1;whiteSpace=wrap;html=1;fillColor=#dae8fc;strokeColor=#6c8ebf;" vertex="1" parent="WIyWlLk6GJQsqaUBKTNV-1">
          <mxGeometry x="260" y="110" width="100" height="50" as="geometry" />
        </mxCell>
        <mxCell id="x4YNFccBxqyePPCdxMUl-63" value="显示15个英雄&lt;br&gt;选择按钮" style="shape=parallelogram;perimeter=parallelogramPerimeter;whiteSpace=wrap;html=1;fixedSize=1;fillColor=#dae8fc;strokeColor=#6c8ebf;" vertex="1" parent="WIyWlLk6GJQsqaUBKTNV-1">
          <mxGeometry x="250" y="190" width="120" height="60" as="geometry" />
        </mxCell>
      </root>
    </mxGraphModel>
  </diagram>
</mxfile>
